<?xml version="1.0" encoding="UTF-8"?>
<svg id="Layer_2" data-name="Layer 2" xmlns="http://www.w3.org/2000/svg" viewBox="0 0 419.73 102.17">
  <defs>
    <style>
      .cls-1 {
        fill: #040a13;
      }

      .cls-2 {
        fill: #5c3bde;
      }
    </style>
  </defs>
  <g id="Layer_1-2" data-name="Layer 1">
    <g>
      <path class="cls-2" d="M10.39,0c-.47,3.78-.27,7.43,1.26,10.9.9,2.04,2.78,3.03,4.08,5.22-3.56-1.26-7.07-1.79-10.11.2l-5.62,3.67c5.62,4.62,10.06,6.45,16.96,3.29-5.74,4.46-5.98,9.89-4.26,16.87,4.9-2.83,7.87-5.04,9.06-9.18v-8.5c-.86-.09-1.68-.55-2.18-1.35-.85-1.37-.43-3.16.93-4.01.39-.24.82-.37,1.25-.42v-4.47c-1.36-6.64-5.09-9.92-11.37-12.22"/>
      <path class="cls-2" d="M117.95,21.67c-4.21-6.77-11.95-10.46-19.68-10.46,0,0-13.1-.66-19.92,10.75-6.81,11.42-1.96,22.71.82,26.23,2.05,2.61,3.82,4.62,5.53,5.31.66.31,1.4.49,2.19.49,2.87,0,5.2-2.33,5.2-5.2,0-1.82-.94-3.42-2.35-4.35h0s-4.77-4.38-3.15-13.67c0,0,1.46-9.65,11.7-9.52,10.04.14,11.56,9.24,11.56,9.24,0,0,2.2,9.49-3.73,14.32v.02c-1.11.95-1.81,2.37-1.81,3.95,0,2.87,2.33,5.2,5.2,5.2.4,0,.78-.05,1.15-.13,1.18-.14,3.12-1.21,6.19-5.07,6.89-8.97,5.32-20.34,1.12-27.12"/>
      <path class="cls-2" d="M304.69,39.22c0,3.86,3.13,6.99,6.99,6.99s6.98-3.13,6.98-6.99-3.13-6.99-6.98-6.99-6.99,3.13-6.99,6.99"/>
      <path class="cls-1" d="M56.43,14.45c-3.02-1.51-6.72-2.27-11.1-2.27h-21.65v54.87h13.36v-19.69h8.29c4.48,0,8.23-.81,11.25-2.42,3.02-1.62,5.26-3.74,6.72-6.37,1.46-2.63,2.19-5.54,2.19-8.71,0-3.44-.76-6.49-2.27-9.14-1.51-2.66-3.78-4.74-6.8-6.25M50.02,34.92c-1.25,1.2-3.15,1.8-5.71,1.8h-7.27v-13.76h7.27c2.55,0,4.45.6,5.71,1.8,1.25,1.2,1.88,2.89,1.88,5.08s-.62,3.88-1.88,5.08"/>
      <polygon class="cls-1" points="187.03 52.12 177.65 12.18 162.96 12.18 153.19 52.12 145.3 12.18 130.99 12.18 144.91 67.05 161.08 67.05 170.15 30.94 178.9 67.05 195.08 67.05 209.39 12.18 195.01 12.18 187.03 52.12"/>
      <polygon class="cls-1" points="216.11 67.05 249.71 67.05 249.71 56.34 229.47 56.34 229.47 44.3 247.37 44.3 247.37 33.99 229.47 33.99 229.47 22.89 249.71 22.89 249.71 12.18 216.11 12.18 216.11 67.05"/>
      <path class="cls-1" d="M288.79,45.32c4.01-1.2,7.05-3.23,9.11-6.1,2.06-2.87,3.09-6.12,3.09-9.77,0-3.23-.76-6.16-2.27-8.79-1.51-2.63-3.79-4.7-6.84-6.21-3.05-1.51-6.74-2.27-11.06-2.27h-22.43v54.87h13.37v-20.71h3.2l9.41,17.07,14.49-.82-10.07-17.27ZM285.55,35.08c-1.23,1.2-3.06,1.8-5.51,1.8h-8.28v-13.6h8.28c2.45,0,4.28.6,5.51,1.8,1.22,1.2,1.84,2.84,1.84,4.92,0,2.19-.61,3.88-1.84,5.08"/>
      <polygon class="cls-1" points="339.28 12.18 325.92 12.18 325.92 61.06 339.28 60.31 339.28 12.18"/>
      <polygon class="cls-1" points="362.34 33.2 378.76 58.08 398.05 56.99 398.05 12.18 384.69 12.18 384.69 46.18 362.34 12.18 348.97 12.18 348.97 59.76 362.34 59 362.34 33.2"/>
      <path class="cls-1" d="M116.17,57.06h-35.75c-.64,0-1.15.51-1.15,1.15v7.69c0,.63.51,1.15,1.15,1.15h35.75c.63,0,1.15-.51,1.15-1.15v-7.69c0-.63-.52-1.15-1.15-1.15"/>
      <path class="cls-2" d="M297.13,84.02c-1.72-.65-3.71-1-5.96-1.05l-2.37-.05c-1.41-.02-2.42-.33-3.04-.93-.62-.6-.93-1.33-.93-2.19,0-.67.17-1.29.51-1.89.34-.59.85-1.07,1.54-1.46.69-.38,1.54-.6,2.56-.66,1.07-.07,1.97.07,2.68.41.72.34,1.26.81,1.63,1.41.37.6.55,1.27.55,2.02l6.77-.44c0-2-.47-3.71-1.4-5.14-.93-1.42-2.26-2.49-4-3.19-1.73-.71-3.81-.98-6.24-.82-2.31.15-4.31.66-6.01,1.54-1.69.87-3.01,2.05-3.95,3.53-.95,1.48-1.42,3.19-1.42,5.13,0,2.69.91,4.8,2.75,6.32,1.83,1.52,4.29,2.3,7.36,2.35l2.33.06c1.89.04,3.26.32,4.1.84.85.51,1.27,1.26,1.27,2.23,0,.78-.23,1.48-.68,2.1-.45.63-1.11,1.14-1.99,1.52-.87.39-1.96.63-3.26.71-1.44.09-2.61-.03-3.51-.38-.9-.34-1.57-.84-2.01-1.47-.44-.64-.66-1.35-.66-2.12l-6.72.44c0,1.97.49,3.68,1.48,5.13.99,1.45,2.44,2.55,4.36,3.3,1.92.75,4.27,1.03,7.06.85,2.62-.17,4.88-.72,6.77-1.65,1.89-.93,3.35-2.15,4.38-3.68,1.03-1.53,1.54-3.26,1.54-5.2s-.49-3.46-1.46-4.71c-.97-1.25-2.32-2.21-4.04-2.86"/>
      <path class="cls-2" d="M324.39,69.73c-1.88-.74-4.12-1.02-6.74-.85l-5.2.34-6.09.4v30.64l6.93-.45v-8.7l4.36-.28c2.62-.17,4.87-.75,6.74-1.73s3.31-2.3,4.31-3.97c1-1.66,1.5-3.57,1.5-5.74v-.67c0-2.22-.5-4.09-1.5-5.61-1-1.52-2.44-2.64-4.31-3.38M322.55,82.19c-.42.79-1.02,1.42-1.8,1.89-.78.47-1.7.74-2.77.81l-4.69.31v-10.12l4.69-.31c1.07-.07,1.99.07,2.77.42.78.35,1.37.9,1.8,1.63.42.74.63,1.63.63,2.68,0,1-.21,1.9-.63,2.68"/>
      <path class="cls-2" d="M360.61,70.37c-1.38-1.41-3.1-2.5-5.16-3.27-2.06-.77-4.44-1.06-7.15-.89-2.71.18-5.09.78-7.15,1.82-2.06,1.04-3.78,2.35-5.16,3.94-1.38,1.59-2.42,3.33-3.11,5.22-.69,1.89-1.04,3.78-1.04,5.67v.92c0,1.69.33,3.43.99,5.22.66,1.79,1.67,3.42,3.02,4.9,1.35,1.48,3.07,2.63,5.14,3.45,2.07.82,4.5,1.14,7.3.96,2.79-.18,5.22-.82,7.29-1.91,2.07-1.09,3.78-2.47,5.14-4.12,1.35-1.66,2.37-3.42,3.04-5.3.68-1.88,1.02-3.66,1.02-5.35v-.92c0-1.89-.35-3.73-1.06-5.53-.71-1.8-1.75-3.41-3.13-4.81M357.14,85.46c-.42,1.19-1.05,2.26-1.88,3.2-.83.94-1.83,1.7-3,2.28-1.17.58-2.49.91-3.95,1.01-1.47.1-2.78-.07-3.93-.49-1.16-.43-2.15-1.05-2.98-1.89-.83-.83-1.46-1.82-1.88-2.96s-.64-2.37-.64-3.71c0-1.42.21-2.73.64-3.93.42-1.21,1.05-2.27,1.88-3.2.83-.93,1.83-1.67,2.98-2.21,1.16-.55,2.47-.87,3.93-.96,1.47-.1,2.78.06,3.93.45,1.16.4,2.15,1,2.98,1.82.83.82,1.46,1.81,1.9,2.96.44,1.15.66,2.43.66,3.85,0,1.33-.21,2.6-.63,3.79"/>
      <path class="cls-2" d="M392.14,80.49c1.03-1.55,1.54-3.45,1.54-5.7v-.67c0-2.28-.51-4.13-1.52-5.56-1.01-1.43-2.47-2.47-4.36-3.11-1.89-.64-4.12-.88-6.68-.71l-7.06.46-5.08.33v30.64l6.94-.45v-9.74l5.05-.33,6.74,9.3,8.03-.52-7.88-10.37c1.83-.85,3.26-2.04,4.27-3.57M375.92,70.87l5.75-.38c1.01-.07,1.9.08,2.64.43.75.35,1.33.88,1.73,1.59s.61,1.55.61,2.52-.2,1.84-.61,2.6c-.41.76-.99,1.37-1.73,1.82-.75.45-1.63.71-2.64.78l-5.75.38v-9.74Z"/>
      <polygon class="cls-2" points="419.73 62.48 395.41 64.06 395.41 70.02 404.08 69.45 404.08 93.89 411.02 93.44 411.02 69 419.73 68.43 419.73 62.48"/>
      <path class="cls-2" d="M304.74,39.05c0,3.86,3.13,6.99,6.99,6.99s6.99-3.13,6.99-6.99-3.13-6.99-6.99-6.99-6.99,3.13-6.99,6.99"/>
    </g>
  </g>
</svg>